<?xml version="1.0" encoding="UTF-8"?>
<svg version="1.1" xmlns="http://www.w3.org/2000/svg" width="250" height="250">
<path d="M0 0 C1.08279739 -0.00101212 1.08279739 -0.00101212 2.18746948 -0.00204468 C12.62386462 0.0134941 22.50931645 0.34305965 32.625 3.25 C33.85089844 3.5903125 35.07679688 3.930625 36.33984375 4.28125 C68.36930162 14.06527428 95.88709752 36.21745102 111.9375 65.625 C121.6478033 84.15863123 125.85754995 103.88023199 125.875 124.6875 C125.87567474 125.40686737 125.87634949 126.12623474 125.87704468 126.86740112 C125.86149018 137.28528005 125.52678729 147.15224828 122.625 157.25 C122.2846875 158.47589844 121.944375 159.70179688 121.59375 160.96484375 C111.81157625 192.98824363 89.65938156 220.52208122 60.25 236.5625 C52.35063957 240.67640593 44.15180544 243.71690837 35.625 246.25 C34.93583496 246.46172852 34.24666992 246.67345703 33.53662109 246.89160156 C12.46062026 253.11333561 -13.42122492 252.68751706 -34.375 246.25 C-35.0963916 246.03569336 -35.8177832 245.82138672 -36.56103516 245.60058594 C-56.80243078 239.45164108 -72.98609691 228.72096852 -88.375 214.25 C-89.26058594 213.46109375 -89.26058594 213.46109375 -90.1640625 212.65625 C-109.77834935 194.43634373 -123.30295395 164.3915759 -124.53613281 137.77172852 C-124.58208819 133.78509978 -124.62165638 129.79939837 -124.625 125.8125 C-124.62567474 125.09313263 -124.62634949 124.37376526 -124.62704468 123.63259888 C-124.61149018 113.21471995 -124.27678729 103.34775172 -121.375 93.25 C-121.0346875 92.02410156 -120.694375 90.79820313 -120.34375 89.53515625 C-110.56008402 57.50687132 -88.40790429 29.98596937 -59 13.9375 C-40.54892003 4.28190456 -20.71014232 0.01726455 0 0 Z " fill="#010000" transform="translate(124.375,-0.24999999999999997)"/>
<path d="M0 0 C6.99682807 -0.29183108 12.84441053 0.6514474 19.5625 2.5625 C20.52196533 2.8313501 21.48143066 3.1002002 22.4699707 3.37719727 C49.02176925 11.07821495 74.56492402 27.89582325 89 52 C89.35400879 52.58507324 89.70801758 53.17014648 90.07275391 53.77294922 C106.9753359 81.93447774 112.16516795 112.39135924 104.43164062 144.34863281 C102.3014011 152.52144496 99.72969818 160.40246666 96 168 C95.34 168 94.68 168 94 168 C92.60103778 166.13069703 91.28241482 164.20110254 90 162.25 C87.57858636 158.57505387 85.16419528 155.06823412 82.1484375 151.8515625 C81.68566406 151.34979492 81.22289062 150.84802734 80.74609375 150.33105469 C79.44333648 148.947571 78.10911828 147.5939125 76.7734375 146.2421875 C74.50054116 142.08689242 74.97959867 139.70629712 75.60595703 135.11816406 C79.79654953 101.95692032 72.27176147 68.6539042 52.5625 41.5625 C51.06857236 39.68658735 49.54717241 37.83224605 48 36 C47.15824219 34.99582031 46.31648438 33.99164063 45.44921875 32.95703125 C33.27371023 18.8574312 17.25315898 7.96180099 0 1 C0 0.67 0 0.34 0 0 Z " fill="#A60000" transform="translate(134,9)"/>
<path d="M0 0 C0.54398438 0.5775 1.08796875 1.155 1.6484375 1.75 C12.12782245 11.76408407 26.23696332 18.28716367 39.8359375 22.9375 C40.52196045 23.17549316 41.2079834 23.41348633 41.91479492 23.65869141 C54.48076569 27.77286837 66.72358483 29.28067375 79.8984375 29.125 C80.59588074 29.12067963 81.29332397 29.11635925 82.01190186 29.11190796 C107.83072924 28.92471869 130.56107035 21.63076644 151.88671875 7 C154.0234375 5.75 154.0234375 5.75 157.0234375 5.75 C148.20473359 17.63607919 137.75544272 29.04579865 125.0234375 36.75 C123.97929687 37.40355469 122.93515625 38.05710938 121.859375 38.73046875 C93.34216954 56.11950705 60.90433858 59.19463632 28.84326172 51.48535156 C3.35098959 44.8374967 -21.53982696 26.82971318 -35.9765625 4.75 C-35.9765625 4.09 -35.9765625 3.43 -35.9765625 2.75 C-31.62366494 2.0748677 -27.26906507 1.41140624 -22.9140625 0.75 C-21.68494141 0.55921875 -20.45582031 0.3684375 -19.18945312 0.171875 C-17.99384766 -0.00859375 -16.79824219 -0.1890625 -15.56640625 -0.375 C-13.92466431 -0.62636719 -13.92466431 -0.62636719 -12.24975586 -0.8828125 C-3.03118328 -1.91695386 -3.03118328 -1.91695386 0 0 Z " fill="#A70000" transform="translate(63.9765625,186.25)"/>
<path d="M0 0 C-0.28609131 0.71333496 -0.57218262 1.42666992 -0.86694336 2.16162109 C-2.78796459 6.97390138 -4.67266787 11.80040486 -6.5625 16.625 C-6.97435547 17.67429687 -7.38621094 18.72359375 -7.81054688 19.8046875 C-8.20435547 20.81015625 -8.59816406 21.815625 -9.00390625 22.8515625 C-9.36299072 23.76760254 -9.7220752 24.68364258 -10.09204102 25.62744141 C-10.77128049 27.40234037 -11.3990314 29.1970942 -12 31 C-14.59765625 32.0703125 -14.59765625 32.0703125 -18.0625 33.125 C-46.26577058 42.44806273 -71.02010927 65.6285076 -84.3125 91.9375 C-93.13853018 110.17988574 -98.21899307 128.6348358 -98.125 149 C-98.12886719 149.83789062 -98.13273437 150.67578125 -98.13671875 151.5390625 C-98.12811114 157.09957859 -97.70067493 162.48357515 -97 168 C-100.24918012 164.33500219 -101.51315035 160.26157096 -103 155.6875 C-103.39191528 154.4967688 -103.39191528 154.4967688 -103.79174805 153.28198242 C-106.13654824 145.95201265 -107.76155919 138.59992814 -109 131 C-109.185625 129.88109375 -109.37125 128.7621875 -109.5625 127.609375 C-112.51321934 103.26594047 -106.72162127 80.21655462 -95 59 C-94.48308594 58.05253906 -93.96617188 57.10507813 -93.43359375 56.12890625 C-84.9015049 41.22681101 -71.79258671 26.85871836 -57 18 C-56.41492676 17.64599121 -55.82985352 17.29198242 -55.22705078 16.92724609 C-38.03279091 6.60723143 -20.26149677 -0.36839085 0 0 Z " fill="#A70000" transform="translate(118,9)"/>
<path d="M0 0 C12.30637967 3.10382142 22.5515575 8.53577026 32 17 C32.845625 17.75152344 33.69125 18.50304687 34.5625 19.27734375 C43.29233844 27.48818265 49.95594013 37.68835429 54 49 C54.44666016 50.22783203 54.44666016 50.22783203 54.90234375 51.48046875 C56.96605096 58.22318034 57.28083689 64.75245262 57.3125 71.75 C57.31797852 72.63719727 57.32345703 73.52439453 57.32910156 74.43847656 C57.26935098 79.94171091 56.5423037 84.71561281 55 90 C49.96485349 85.79758926 45.32489838 81.38124249 40.75 76.6875 C36.445875 72.32929509 32.13894111 68.11284374 27.375 64.25 C26.51519531 63.54230469 25.65539062 62.83460937 24.76953125 62.10546875 C22.71535671 60.54383254 20.77145409 59.24119525 18.57421875 57.92578125 C13.76474328 54.82313015 9.94136093 51.90196328 8.12060547 46.2890625 C6.71174959 39.69272166 6.09940167 33.01125883 5.41992188 26.30859375 C4.67279717 20.42194606 3.11757748 14.77247418 1.57226562 9.05493164 C0 3.21163372 0 3.21163372 0 0 Z " fill="#B80000" transform="translate(149,56)"/>
<path d="M0 0 C-1.22919909 8.11055906 -2.90634496 15.99361015 -4.9375 23.9375 C-6.78677268 31.23529725 -8.26595579 38.34717184 -9.03149414 45.83911133 C-10.34355892 58.55508228 -10.34355892 58.55508228 -15 62.75 C-16.6408137 63.87210485 -18.30917955 64.95476554 -20 66 C-21.76856803 67.39341723 -23.51782868 68.81158873 -25.25 70.25 C-26.16394531 70.99121094 -27.07789062 71.73242188 -28.01953125 72.49609375 C-34.33687547 77.80332526 -40.5488258 83.39331362 -46.25390625 89.35546875 C-48 91 -48 91 -50 91 C-51.89942438 84.59321143 -52.30499176 78.78816816 -52.25 72.125 C-52.25773437 71.19558594 -52.26546875 70.26617187 -52.2734375 69.30859375 C-52.2185688 49.63816578 -44.78984325 31.12566896 -31 17 C-22.94309724 9.79007782 -11.19404943 0 0 0 Z " fill="#B90000" transform="translate(103,47)"/>
<path d="M0 0 C1.81019353 0.6371225 3.60137889 1.32970136 5.375 2.0625 C14.9255223 5.84729563 24.70862207 8.95717607 34.46435547 12.16552734 C37.3121309 13.1027213 40.15680128 14.04901587 43 15 C35.79700145 24.53910618 25.8632249 29.48211675 15 34 C14.17628906 34.35191406 13.35257812 34.70382813 12.50390625 35.06640625 C-4.39963235 41.36897369 -26.29691585 39.17906809 -42.37890625 31.91796875 C-58.79391892 23.61824324 -58.79391892 23.61824324 -61 17 C-60.19054932 16.81377075 -60.19054932 16.81377075 -59.36474609 16.6237793 C-46.49091567 13.60198657 -34.07131569 9.78855206 -21.6875 5.1875 C-21.01926208 4.93930511 -20.35102417 4.69111023 -19.66253662 4.43539429 C-4.92156223 -1.05975245 -4.92156223 -1.05975245 0 0 Z " fill="#B90000" transform="translate(129,165)"/>
<path d="M0 0 C5.74334775 3.38367774 11.06588899 8.86210025 13.515625 15.125 C14.3721766 22.44626214 14.66226823 29.37653197 10.078125 35.4453125 C5.57294803 40.28837774 1.12641812 44.70255499 -5.65625 45.49609375 C-13.30075124 45.63796768 -18.74678845 45.46228982 -24.484375 40.125 C-30.00848327 34.57611995 -32.77318119 30.3869725 -32.921875 22.375 C-32.79472196 14.7140293 -31.07938753 10.70396337 -25.734375 5.3828125 C-18.38326828 -1.23952071 -9.72719371 -3.42592986 0 0 Z " fill="#9E0000" transform="translate(134.484375,102.875)"/>
</svg>
